<svg xmlns="http://www.w3.org/2000/svg" viewBox="0 0 64 64">
  <defs>
    <linearGradient id="grad" x1="0%" y1="0%" x2="100%" y2="100%">
      <stop offset="0%" stop-color="#1d4ed8"/>
      <stop offset="50%" stop-color="#2563eb"/>
      <stop offset="100%" stop-color="#60a5fa"/>
    </linearGradient>
  </defs>
  <rect width="64" height="64" rx="16" fill="url(#grad)"/>
  <path d="M20 20a6 6 0 0 1 6-6h12a6 6 0 0 1 6 6v4h2a4 4 0 0 1 4 4v12a4 4 0 0 1-4 4h-2v4a6 6 0 0 1-6 6H26a6 6 0 0 1-6-6v-4h-2a4 4 0 0 1-4-4V28a4 4 0 0 1 4-4h2zm8 4a2 2 0 0 0-2 2v12a2 2 0 0 0 2 2h8a2 2 0 0 0 2-2V26a2 2 0 0 0-2-2z" fill="#f8fafc"/>
</svg>
