<svg xmlns="http://www.w3.org/2000/svg" viewBox="0 0 64 64" role="img" aria-labelledby="title" focusable="false">
  <title id="title">Tech Teddy Icon</title>
  <defs>
    <linearGradient id="gradient" x1="0" x2="1" y1="0" y2="1">
      <stop offset="0%" stop-color="#1e3a8a" />
      <stop offset="100%" stop-color="#3b82f6" />
    </linearGradient>
  </defs>
  <rect x="4" y="4" width="56" height="56" rx="16" fill="url(#gradient)" />
  <path
    d="M22 20h20a2 2 0 0 1 0 4h-7v20a2 2 0 0 1-2 2h-2a2 2 0 0 1-2-2V24h-7a2 2 0 0 1 0-4Z"
    fill="#f8fafc"
  />
  <path
    d="M24 34h16a2 2 0 0 1 0 4H24a2 2 0 0 1 0-4Z"
    fill="#bfdbfe"
  />
</svg>
